solid OpenSCAD_Model
  facet normal 0.55376 0.0582049 0.83064
    outer loop
      vertex 14.6722 3.11868 0
      vertex 6 0 6
      vertex 15 0 0
    endloop
  endfacet
  facet normal 0.553761 0.0582007 0.830639
    outer loop
      vertex 6 0 6
      vertex 14.6722 3.11868 0
      vertex 5.86889 1.24747 6
    endloop
  endfacet
  facet normal 0.327279 -0.450471 0.830641
    outer loop
      vertex 4.01478 -4.45887 6
      vertex 7.5 -12.9904 0
      vertex 10.037 -11.1472 0
    endloop
  endfacet
  facet normal 0.327284 -0.450468 0.83064
    outer loop
      vertex 7.5 -12.9904 0
      vertex 4.01478 -4.45887 6
      vertex 3 -5.19615 6
    endloop
  endfacet
  facet normal -0.413789 -0.372577 0.830641
    outer loop
      vertex -4.8541 -3.52671 6
      vertex -10.037 -11.1472 0
      vertex -4.01478 -4.45887 6
    endloop
  endfacet
  facet normal -0.413791 -0.372576 0.830641
    outer loop
      vertex -10.037 -11.1472 0
      vertex -4.8541 -3.52671 6
      vertex -12.1353 -8.81678 0
    endloop
  endfacet
  facet normal 0.115771 0.544643 0.830639
    outer loop
      vertex 1.56793 14.9178 0
      vertex 1.8541 5.70634 6
      vertex 4.63525 14.2658 0
    endloop
  endfacet
  facet normal 0.115767 0.544644 0.830639
    outer loop
      vertex 1.8541 5.70634 6
      vertex 1.56793 14.9178 0
      vertex 0.627171 5.96713 6
    endloop
  endfacet
  facet normal -0.48221 0.278404 0.830641
    outer loop
      vertex -12.1353 8.81678 0
      vertex -5.48127 2.44042 6
      vertex -4.8541 3.52671 6
    endloop
  endfacet
  facet normal -0.482213 0.278401 0.830641
    outer loop
      vertex -5.48127 2.44042 6
      vertex -12.1353 8.81678 0
      vertex -13.7032 6.10105 0
    endloop
  endfacet
  facet normal 0.226465 0.508676 0.83064
    outer loop
      vertex 4.63525 14.2658 0
      vertex 3 5.19615 6
      vertex 7.5 12.9904 0
    endloop
  endfacet
  facet normal 0.226477 0.508673 0.830638
    outer loop
      vertex 3 5.19615 6
      vertex 4.63525 14.2658 0
      vertex 1.8541 5.70634 6
    endloop
  endfacet
  facet normal 0.482213 -0.278401 0.830641
    outer loop
      vertex 5.48127 -2.44042 6
      vertex 12.1353 -8.81678 0
      vertex 13.7032 -6.10105 0
    endloop
  endfacet
  facet normal 0.48221 -0.278404 0.830641
    outer loop
      vertex 12.1353 -8.81678 0
      vertex 5.48127 -2.44042 6
      vertex 4.8541 -3.52671 6
    endloop
  endfacet
  facet normal -0.553761 0.0582007 0.830639
    outer loop
      vertex -14.6722 3.11868 0
      vertex -6 0 6
      vertex -5.86889 1.24747 6
    endloop
  endfacet
  facet normal -0.55376 0.0582049 0.83064
    outer loop
      vertex -6 0 6
      vertex -14.6722 3.11868 0
      vertex -15 0 0
    endloop
  endfacet
  facet normal -0.115767 -0.544644 0.830639
    outer loop
      vertex -1.8541 -5.70634 6
      vertex -1.56793 -14.9178 0
      vertex -0.627171 -5.96713 6
    endloop
  endfacet
  facet normal -0.115771 -0.544643 0.830639
    outer loop
      vertex -1.56793 -14.9178 0
      vertex -1.8541 -5.70634 6
      vertex -4.63525 -14.2658 0
    endloop
  endfacet
  facet normal -0.115767 0.544644 0.830639
    outer loop
      vertex -1.56793 14.9178 0
      vertex -1.8541 5.70634 6
      vertex -0.627171 5.96713 6
    endloop
  endfacet
  facet normal -0.115771 0.544643 0.830639
    outer loop
      vertex -1.8541 5.70634 6
      vertex -1.56793 14.9178 0
      vertex -4.63525 14.2658 0
    endloop
  endfacet
  facet normal -0.413789 0.372577 0.830641
    outer loop
      vertex -10.037 11.1472 0
      vertex -4.8541 3.52671 6
      vertex -4.01478 4.45887 6
    endloop
  endfacet
  facet normal -0.413791 0.372576 0.830641
    outer loop
      vertex -4.8541 3.52671 6
      vertex -10.037 11.1472 0
      vertex -12.1353 8.81678 0
    endloop
  endfacet
  facet normal 0 0 -1
    outer loop
      vertex 14.6722 -3.11868 0
      vertex 14.6722 3.11868 0
      vertex 15 0 0
    endloop
  endfacet
  facet normal 0 0 -1
    outer loop
      vertex 13.7032 -6.10105 0
      vertex 14.6722 3.11868 0
      vertex 14.6722 -3.11868 0
    endloop
  endfacet
  facet normal 0 0 -1
    outer loop
      vertex 13.7032 -6.10105 0
      vertex 13.7032 6.10105 0
      vertex 14.6722 3.11868 0
    endloop
  endfacet
  facet normal 0 0 -1
    outer loop
      vertex 12.1353 -8.81678 0
      vertex 13.7032 6.10105 0
      vertex 13.7032 -6.10105 0
    endloop
  endfacet
  facet normal 0 0 -1
    outer loop
      vertex 12.1353 -8.81678 0
      vertex 12.1353 8.81678 0
      vertex 13.7032 6.10105 0
    endloop
  endfacet
  facet normal 0 0 -1
    outer loop
      vertex 10.037 -11.1472 0
      vertex 12.1353 8.81678 0
      vertex 12.1353 -8.81678 0
    endloop
  endfacet
  facet normal 0 0 -1
    outer loop
      vertex 10.037 -11.1472 0
      vertex 10.037 11.1472 0
      vertex 12.1353 8.81678 0
    endloop
  endfacet
  facet normal 0 0 -1
    outer loop
      vertex 7.5 -12.9904 0
      vertex 10.037 11.1472 0
      vertex 10.037 -11.1472 0
    endloop
  endfacet
  facet normal 0 0 -1
    outer loop
      vertex 7.5 -12.9904 0
      vertex 7.5 12.9904 0
      vertex 10.037 11.1472 0
    endloop
  endfacet
  facet normal 0 0 -1
    outer loop
      vertex 4.63525 -14.2658 0
      vertex 7.5 12.9904 0
      vertex 7.5 -12.9904 0
    endloop
  endfacet
  facet normal 0 0 -1
    outer loop
      vertex 4.63525 -14.2658 0
      vertex 4.63525 14.2658 0
      vertex 7.5 12.9904 0
    endloop
  endfacet
  facet normal 0 0 -1
    outer loop
      vertex 1.56793 -14.9178 0
      vertex 4.63525 14.2658 0
      vertex 4.63525 -14.2658 0
    endloop
  endfacet
  facet normal 0 0 -1
    outer loop
      vertex 1.56793 -14.9178 0
      vertex 1.56793 14.9178 0
      vertex 4.63525 14.2658 0
    endloop
  endfacet
  facet normal 0 0 -1
    outer loop
      vertex -1.56793 -14.9178 0
      vertex 1.56793 14.9178 0
      vertex 1.56793 -14.9178 0
    endloop
  endfacet
  facet normal 0 0 -1
    outer loop
      vertex -1.56793 -14.9178 0
      vertex -1.56793 14.9178 0
      vertex 1.56793 14.9178 0
    endloop
  endfacet
  facet normal 0 0 -1
    outer loop
      vertex -4.63525 -14.2658 0
      vertex -1.56793 14.9178 0
      vertex -1.56793 -14.9178 0
    endloop
  endfacet
  facet normal 0 0 -1
    outer loop
      vertex -4.63525 -14.2658 0
      vertex -4.63525 14.2658 0
      vertex -1.56793 14.9178 0
    endloop
  endfacet
  facet normal 0 0 -1
    outer loop
      vertex -7.5 -12.9904 0
      vertex -4.63525 14.2658 0
      vertex -4.63525 -14.2658 0
    endloop
  endfacet
  facet normal 0 0 -1
    outer loop
      vertex -7.5 -12.9904 0
      vertex -7.5 12.9904 0
      vertex -4.63525 14.2658 0
    endloop
  endfacet
  facet normal 0 0 -1
    outer loop
      vertex -10.037 -11.1472 0
      vertex -7.5 12.9904 0
      vertex -7.5 -12.9904 0
    endloop
  endfacet
  facet normal 0 0 -1
    outer loop
      vertex -10.037 -11.1472 0
      vertex -10.037 11.1472 0
      vertex -7.5 12.9904 0
    endloop
  endfacet
  facet normal 0 0 -1
    outer loop
      vertex -12.1353 -8.81678 0
      vertex -10.037 11.1472 0
      vertex -10.037 -11.1472 0
    endloop
  endfacet
  facet normal 0 0 -1
    outer loop
      vertex -12.1353 -8.81678 0
      vertex -12.1353 8.81678 0
      vertex -10.037 11.1472 0
    endloop
  endfacet
  facet normal 0 0 -1
    outer loop
      vertex -13.7032 -6.10105 0
      vertex -12.1353 8.81678 0
      vertex -12.1353 -8.81678 0
    endloop
  endfacet
  facet normal 0 0 -1
    outer loop
      vertex -13.7032 -6.10105 0
      vertex -13.7032 6.10105 0
      vertex -12.1353 8.81678 0
    endloop
  endfacet
  facet normal 0 0 -1
    outer loop
      vertex -14.6722 -3.11868 0
      vertex -13.7032 6.10105 0
      vertex -13.7032 -6.10105 0
    endloop
  endfacet
  facet normal 0 0 -1
    outer loop
      vertex -14.6722 -3.11868 0
      vertex -14.6722 3.11868 0
      vertex -13.7032 6.10105 0
    endloop
  endfacet
  facet normal 0 -0 -1
    outer loop
      vertex -14.6722 3.11868 0
      vertex -14.6722 -3.11868 0
      vertex -15 0 0
    endloop
  endfacet
  facet normal 0.52956 -0.172059 0.83064
    outer loop
      vertex 5.86889 -1.24747 6
      vertex 13.7032 -6.10105 0
      vertex 14.6722 -3.11868 0
    endloop
  endfacet
  facet normal 0.529556 -0.172066 0.830641
    outer loop
      vertex 13.7032 -6.10105 0
      vertex 5.86889 -1.24747 6
      vertex 5.48127 -2.44042 6
    endloop
  endfacet
  facet normal 0.413791 0.372576 0.830641
    outer loop
      vertex 10.037 11.1472 0
      vertex 4.8541 3.52671 6
      vertex 12.1353 8.81678 0
    endloop
  endfacet
  facet normal 0.413789 0.372577 0.830641
    outer loop
      vertex 4.8541 3.52671 6
      vertex 10.037 11.1472 0
      vertex 4.01478 4.45887 6
    endloop
  endfacet
  facet normal -0.529556 0.172066 0.830641
    outer loop
      vertex -13.7032 6.10105 0
      vertex -5.86889 1.24747 6
      vertex -5.48127 2.44042 6
    endloop
  endfacet
  facet normal -0.52956 0.172059 0.83064
    outer loop
      vertex -5.86889 1.24747 6
      vertex -13.7032 6.10105 0
      vertex -14.6722 3.11868 0
    endloop
  endfacet
  facet normal 0.327279 0.450471 0.830641
    outer loop
      vertex 7.5 12.9904 0
      vertex 4.01478 4.45887 6
      vertex 10.037 11.1472 0
    endloop
  endfacet
  facet normal 0.327284 0.450468 0.83064
    outer loop
      vertex 4.01478 4.45887 6
      vertex 7.5 12.9904 0
      vertex 3 5.19615 6
    endloop
  endfacet
  facet normal 0 0.556811 0.830639
    outer loop
      vertex 1.56793 14.9178 0
      vertex -0.627171 5.96713 6
      vertex 0.627171 5.96713 6
    endloop
  endfacet
  facet normal 0 0.556811 0.830639
    outer loop
      vertex -0.627171 5.96713 6
      vertex 1.56793 14.9178 0
      vertex -1.56793 14.9178 0
    endloop
  endfacet
  facet normal -0.48221 -0.278404 0.830641
    outer loop
      vertex -5.48127 -2.44042 6
      vertex -12.1353 -8.81678 0
      vertex -4.8541 -3.52671 6
    endloop
  endfacet
  facet normal -0.482213 -0.278401 0.830641
    outer loop
      vertex -12.1353 -8.81678 0
      vertex -5.48127 -2.44042 6
      vertex -13.7032 -6.10105 0
    endloop
  endfacet
  facet normal -0.327284 0.450468 0.83064
    outer loop
      vertex -7.5 12.9904 0
      vertex -4.01478 4.45887 6
      vertex -3 5.19615 6
    endloop
  endfacet
  facet normal -0.327279 0.450471 0.830641
    outer loop
      vertex -4.01478 4.45887 6
      vertex -7.5 12.9904 0
      vertex -10.037 11.1472 0
    endloop
  endfacet
  facet normal -0.226477 0.508673 0.830638
    outer loop
      vertex -4.63525 14.2658 0
      vertex -3 5.19615 6
      vertex -1.8541 5.70634 6
    endloop
  endfacet
  facet normal -0.226465 0.508676 0.83064
    outer loop
      vertex -3 5.19615 6
      vertex -4.63525 14.2658 0
      vertex -7.5 12.9904 0
    endloop
  endfacet
  facet normal 0.115771 -0.544643 0.830639
    outer loop
      vertex 1.8541 -5.70634 6
      vertex 1.56793 -14.9178 0
      vertex 4.63525 -14.2658 0
    endloop
  endfacet
  facet normal 0.115767 -0.544644 0.830639
    outer loop
      vertex 1.56793 -14.9178 0
      vertex 1.8541 -5.70634 6
      vertex 0.627171 -5.96713 6
    endloop
  endfacet
  facet normal 0 -0.556811 0.830639
    outer loop
      vertex -0.627171 -5.96713 6
      vertex 1.56793 -14.9178 0
      vertex 0.627171 -5.96713 6
    endloop
  endfacet
  facet normal 0 -0.556811 0.830639
    outer loop
      vertex 1.56793 -14.9178 0
      vertex -0.627171 -5.96713 6
      vertex -1.56793 -14.9178 0
    endloop
  endfacet
  facet normal 0.226465 -0.508676 0.83064
    outer loop
      vertex 3 -5.19615 6
      vertex 4.63525 -14.2658 0
      vertex 7.5 -12.9904 0
    endloop
  endfacet
  facet normal 0.226477 -0.508673 0.830638
    outer loop
      vertex 4.63525 -14.2658 0
      vertex 3 -5.19615 6
      vertex 1.8541 -5.70634 6
    endloop
  endfacet
  facet normal 0.413791 -0.372576 0.830641
    outer loop
      vertex 4.8541 -3.52671 6
      vertex 10.037 -11.1472 0
      vertex 12.1353 -8.81678 0
    endloop
  endfacet
  facet normal 0.413789 -0.372577 0.830641
    outer loop
      vertex 10.037 -11.1472 0
      vertex 4.8541 -3.52671 6
      vertex 4.01478 -4.45887 6
    endloop
  endfacet
  facet normal 0.55376 -0.0582049 0.83064
    outer loop
      vertex 6 0 6
      vertex 14.6722 -3.11868 0
      vertex 15 0 0
    endloop
  endfacet
  facet normal 0.553761 -0.0582007 0.830639
    outer loop
      vertex 14.6722 -3.11868 0
      vertex 6 0 6
      vertex 5.86889 -1.24747 6
    endloop
  endfacet
  facet normal 0.482213 0.278401 0.830641
    outer loop
      vertex 12.1353 8.81678 0
      vertex 5.48127 2.44042 6
      vertex 13.7032 6.10105 0
    endloop
  endfacet
  facet normal 0.48221 0.278404 0.830641
    outer loop
      vertex 5.48127 2.44042 6
      vertex 12.1353 8.81678 0
      vertex 4.8541 3.52671 6
    endloop
  endfacet
  facet normal 0.52956 0.172059 0.83064
    outer loop
      vertex 13.7032 6.10105 0
      vertex 5.86889 1.24747 6
      vertex 14.6722 3.11868 0
    endloop
  endfacet
  facet normal 0.529556 0.172066 0.830641
    outer loop
      vertex 5.86889 1.24747 6
      vertex 13.7032 6.10105 0
      vertex 5.48127 2.44042 6
    endloop
  endfacet
  facet normal -0.226477 -0.508673 0.830638
    outer loop
      vertex -3 -5.19615 6
      vertex -4.63525 -14.2658 0
      vertex -1.8541 -5.70634 6
    endloop
  endfacet
  facet normal -0.226465 -0.508676 0.83064
    outer loop
      vertex -4.63525 -14.2658 0
      vertex -3 -5.19615 6
      vertex -7.5 -12.9904 0
    endloop
  endfacet
  facet normal -0.327284 -0.450468 0.83064
    outer loop
      vertex -4.01478 -4.45887 6
      vertex -7.5 -12.9904 0
      vertex -3 -5.19615 6
    endloop
  endfacet
  facet normal -0.327279 -0.450471 0.830641
    outer loop
      vertex -7.5 -12.9904 0
      vertex -4.01478 -4.45887 6
      vertex -10.037 -11.1472 0
    endloop
  endfacet
  facet normal -0.529556 -0.172066 0.830641
    outer loop
      vertex -5.86889 -1.24747 6
      vertex -13.7032 -6.10105 0
      vertex -5.48127 -2.44042 6
    endloop
  endfacet
  facet normal -0.52956 -0.172059 0.83064
    outer loop
      vertex -13.7032 -6.10105 0
      vertex -5.86889 -1.24747 6
      vertex -14.6722 -3.11868 0
    endloop
  endfacet
  facet normal -0.553761 -0.0582007 0.830639
    outer loop
      vertex -6 0 6
      vertex -14.6722 -3.11868 0
      vertex -5.86889 -1.24747 6
    endloop
  endfacet
  facet normal -0.55376 -0.0582049 0.83064
    outer loop
      vertex -14.6722 -3.11868 0
      vertex -6 0 6
      vertex -15 0 0
    endloop
  endfacet
  facet normal 0.55376 0.0582049 -0.83064
    outer loop
      vertex 6 0 6
      vertex 14.6722 3.11868 12
      vertex 15 0 12
    endloop
  endfacet
  facet normal 0.553761 0.0582007 -0.830639
    outer loop
      vertex 14.6722 3.11868 12
      vertex 6 0 6
      vertex 5.86889 1.24747 6
    endloop
  endfacet
  facet normal -0.553761 0.0582007 -0.830639
    outer loop
      vertex -6 0 6
      vertex -14.6722 3.11868 12
      vertex -5.86889 1.24747 6
    endloop
  endfacet
  facet normal -0.55376 0.0582049 -0.83064
    outer loop
      vertex -14.6722 3.11868 12
      vertex -6 0 6
      vertex -15 0 12
    endloop
  endfacet
  facet normal 0.55376 -0.0582049 -0.83064
    outer loop
      vertex 14.6722 -3.11868 12
      vertex 6 0 6
      vertex 15 0 12
    endloop
  endfacet
  facet normal 0.553761 -0.0582007 -0.830639
    outer loop
      vertex 6 0 6
      vertex 14.6722 -3.11868 12
      vertex 5.86889 -1.24747 6
    endloop
  endfacet
  facet normal 0 0.556811 -0.830639
    outer loop
      vertex -0.627171 5.96713 6
      vertex 1.56793 14.9178 12
      vertex 0.627171 5.96713 6
    endloop
  endfacet
  facet normal 0 0.556811 -0.830639
    outer loop
      vertex 1.56793 14.9178 12
      vertex -0.627171 5.96713 6
      vertex -1.56793 14.9178 12
    endloop
  endfacet
  facet normal -0.115767 -0.544644 -0.830639
    outer loop
      vertex -1.56793 -14.9178 12
      vertex -1.8541 -5.70634 6
      vertex -0.627171 -5.96713 6
    endloop
  endfacet
  facet normal -0.115771 -0.544643 -0.830639
    outer loop
      vertex -1.8541 -5.70634 6
      vertex -1.56793 -14.9178 12
      vertex -4.63525 -14.2658 12
    endloop
  endfacet
  facet normal -0.327284 0.450468 -0.83064
    outer loop
      vertex -4.01478 4.45887 6
      vertex -7.5 12.9904 12
      vertex -3 5.19615 6
    endloop
  endfacet
  facet normal -0.327279 0.450471 -0.830641
    outer loop
      vertex -7.5 12.9904 12
      vertex -4.01478 4.45887 6
      vertex -10.037 11.1472 12
    endloop
  endfacet
  facet normal 0.413791 0.372576 -0.830641
    outer loop
      vertex 4.8541 3.52671 6
      vertex 10.037 11.1472 12
      vertex 12.1353 8.81678 12
    endloop
  endfacet
  facet normal 0.413789 0.372577 -0.830641
    outer loop
      vertex 10.037 11.1472 12
      vertex 4.8541 3.52671 6
      vertex 4.01478 4.45887 6
    endloop
  endfacet
  facet normal 0.327279 -0.450471 -0.830641
    outer loop
      vertex 7.5 -12.9904 12
      vertex 4.01478 -4.45887 6
      vertex 10.037 -11.1472 12
    endloop
  endfacet
  facet normal 0.327284 -0.450468 -0.83064
    outer loop
      vertex 4.01478 -4.45887 6
      vertex 7.5 -12.9904 12
      vertex 3 -5.19615 6
    endloop
  endfacet
  facet normal -0.413789 -0.372577 -0.830641
    outer loop
      vertex -10.037 -11.1472 12
      vertex -4.8541 -3.52671 6
      vertex -4.01478 -4.45887 6
    endloop
  endfacet
  facet normal -0.413791 -0.372576 -0.830641
    outer loop
      vertex -4.8541 -3.52671 6
      vertex -10.037 -11.1472 12
      vertex -12.1353 -8.81678 12
    endloop
  endfacet
  facet normal -0.48221 0.278404 -0.830641
    outer loop
      vertex -5.48127 2.44042 6
      vertex -12.1353 8.81678 12
      vertex -4.8541 3.52671 6
    endloop
  endfacet
  facet normal -0.482213 0.278401 -0.830641
    outer loop
      vertex -12.1353 8.81678 12
      vertex -5.48127 2.44042 6
      vertex -13.7032 6.10105 12
    endloop
  endfacet
  facet normal -0.115767 0.544644 -0.830639
    outer loop
      vertex -1.8541 5.70634 6
      vertex -1.56793 14.9178 12
      vertex -0.627171 5.96713 6
    endloop
  endfacet
  facet normal -0.115771 0.544643 -0.830639
    outer loop
      vertex -1.56793 14.9178 12
      vertex -1.8541 5.70634 6
      vertex -4.63525 14.2658 12
    endloop
  endfacet
  facet normal 0.226465 0.508676 -0.83064
    outer loop
      vertex 3 5.19615 6
      vertex 4.63525 14.2658 12
      vertex 7.5 12.9904 12
    endloop
  endfacet
  facet normal 0.226477 0.508673 -0.830638
    outer loop
      vertex 4.63525 14.2658 12
      vertex 3 5.19615 6
      vertex 1.8541 5.70634 6
    endloop
  endfacet
  facet normal 0.482213 0.278401 -0.830641
    outer loop
      vertex 5.48127 2.44042 6
      vertex 12.1353 8.81678 12
      vertex 13.7032 6.10105 12
    endloop
  endfacet
  facet normal 0.48221 0.278404 -0.830641
    outer loop
      vertex 12.1353 8.81678 12
      vertex 5.48127 2.44042 6
      vertex 4.8541 3.52671 6
    endloop
  endfacet
  facet normal 0.482213 -0.278401 -0.830641
    outer loop
      vertex 12.1353 -8.81678 12
      vertex 5.48127 -2.44042 6
      vertex 13.7032 -6.10105 12
    endloop
  endfacet
  facet normal 0.48221 -0.278404 -0.830641
    outer loop
      vertex 5.48127 -2.44042 6
      vertex 12.1353 -8.81678 12
      vertex 4.8541 -3.52671 6
    endloop
  endfacet
  facet normal 0.115771 -0.544643 -0.830639
    outer loop
      vertex 1.56793 -14.9178 12
      vertex 1.8541 -5.70634 6
      vertex 4.63525 -14.2658 12
    endloop
  endfacet
  facet normal 0.115767 -0.544644 -0.830639
    outer loop
      vertex 1.8541 -5.70634 6
      vertex 1.56793 -14.9178 12
      vertex 0.627171 -5.96713 6
    endloop
  endfacet
  facet normal -0.226477 -0.508673 -0.830638
    outer loop
      vertex -4.63525 -14.2658 12
      vertex -3 -5.19615 6
      vertex -1.8541 -5.70634 6
    endloop
  endfacet
  facet normal -0.226465 -0.508676 -0.83064
    outer loop
      vertex -3 -5.19615 6
      vertex -4.63525 -14.2658 12
      vertex -7.5 -12.9904 12
    endloop
  endfacet
  facet normal -0.529556 -0.172066 -0.830641
    outer loop
      vertex -13.7032 -6.10105 12
      vertex -5.86889 -1.24747 6
      vertex -5.48127 -2.44042 6
    endloop
  endfacet
  facet normal -0.52956 -0.172059 -0.83064
    outer loop
      vertex -5.86889 -1.24747 6
      vertex -13.7032 -6.10105 12
      vertex -14.6722 -3.11868 12
    endloop
  endfacet
  facet normal -0.529556 0.172066 -0.830641
    outer loop
      vertex -5.86889 1.24747 6
      vertex -13.7032 6.10105 12
      vertex -5.48127 2.44042 6
    endloop
  endfacet
  facet normal -0.52956 0.172059 -0.83064
    outer loop
      vertex -13.7032 6.10105 12
      vertex -5.86889 1.24747 6
      vertex -14.6722 3.11868 12
    endloop
  endfacet
  facet normal -0.413789 0.372577 -0.830641
    outer loop
      vertex -4.8541 3.52671 6
      vertex -10.037 11.1472 12
      vertex -4.01478 4.45887 6
    endloop
  endfacet
  facet normal -0.413791 0.372576 -0.830641
    outer loop
      vertex -10.037 11.1472 12
      vertex -4.8541 3.52671 6
      vertex -12.1353 8.81678 12
    endloop
  endfacet
  facet normal -0.226477 0.508673 -0.830638
    outer loop
      vertex -3 5.19615 6
      vertex -4.63525 14.2658 12
      vertex -1.8541 5.70634 6
    endloop
  endfacet
  facet normal -0.226465 0.508676 -0.83064
    outer loop
      vertex -4.63525 14.2658 12
      vertex -3 5.19615 6
      vertex -7.5 12.9904 12
    endloop
  endfacet
  facet normal 0.115771 0.544643 -0.830639
    outer loop
      vertex 1.8541 5.70634 6
      vertex 1.56793 14.9178 12
      vertex 4.63525 14.2658 12
    endloop
  endfacet
  facet normal 0.115767 0.544644 -0.830639
    outer loop
      vertex 1.56793 14.9178 12
      vertex 1.8541 5.70634 6
      vertex 0.627171 5.96713 6
    endloop
  endfacet
  facet normal 0.327279 0.450471 -0.830641
    outer loop
      vertex 4.01478 4.45887 6
      vertex 7.5 12.9904 12
      vertex 10.037 11.1472 12
    endloop
  endfacet
  facet normal 0.327284 0.450468 -0.83064
    outer loop
      vertex 7.5 12.9904 12
      vertex 4.01478 4.45887 6
      vertex 3 5.19615 6
    endloop
  endfacet
  facet normal 0.52956 0.172059 -0.83064
    outer loop
      vertex 5.86889 1.24747 6
      vertex 13.7032 6.10105 12
      vertex 14.6722 3.11868 12
    endloop
  endfacet
  facet normal 0.529556 0.172066 -0.830641
    outer loop
      vertex 13.7032 6.10105 12
      vertex 5.86889 1.24747 6
      vertex 5.48127 2.44042 6
    endloop
  endfacet
  facet normal 0.52956 -0.172059 -0.83064
    outer loop
      vertex 13.7032 -6.10105 12
      vertex 5.86889 -1.24747 6
      vertex 14.6722 -3.11868 12
    endloop
  endfacet
  facet normal 0.529556 -0.172066 -0.830641
    outer loop
      vertex 5.86889 -1.24747 6
      vertex 13.7032 -6.10105 12
      vertex 5.48127 -2.44042 6
    endloop
  endfacet
  facet normal 0.413791 -0.372576 -0.830641
    outer loop
      vertex 10.037 -11.1472 12
      vertex 4.8541 -3.52671 6
      vertex 12.1353 -8.81678 12
    endloop
  endfacet
  facet normal 0.413789 -0.372577 -0.830641
    outer loop
      vertex 4.8541 -3.52671 6
      vertex 10.037 -11.1472 12
      vertex 4.01478 -4.45887 6
    endloop
  endfacet
  facet normal 0.226465 -0.508676 -0.83064
    outer loop
      vertex 4.63525 -14.2658 12
      vertex 3 -5.19615 6
      vertex 7.5 -12.9904 12
    endloop
  endfacet
  facet normal 0.226477 -0.508673 -0.830638
    outer loop
      vertex 3 -5.19615 6
      vertex 4.63525 -14.2658 12
      vertex 1.8541 -5.70634 6
    endloop
  endfacet
  facet normal 0 -0.556811 -0.830639
    outer loop
      vertex 1.56793 -14.9178 12
      vertex -0.627171 -5.96713 6
      vertex 0.627171 -5.96713 6
    endloop
  endfacet
  facet normal 0 -0.556811 -0.830639
    outer loop
      vertex -0.627171 -5.96713 6
      vertex 1.56793 -14.9178 12
      vertex -1.56793 -14.9178 12
    endloop
  endfacet
  facet normal -0.327284 -0.450468 -0.83064
    outer loop
      vertex -7.5 -12.9904 12
      vertex -4.01478 -4.45887 6
      vertex -3 -5.19615 6
    endloop
  endfacet
  facet normal -0.327279 -0.450471 -0.830641
    outer loop
      vertex -4.01478 -4.45887 6
      vertex -7.5 -12.9904 12
      vertex -10.037 -11.1472 12
    endloop
  endfacet
  facet normal -0.48221 -0.278404 -0.830641
    outer loop
      vertex -12.1353 -8.81678 12
      vertex -5.48127 -2.44042 6
      vertex -4.8541 -3.52671 6
    endloop
  endfacet
  facet normal -0.482213 -0.278401 -0.830641
    outer loop
      vertex -5.48127 -2.44042 6
      vertex -12.1353 -8.81678 12
      vertex -13.7032 -6.10105 12
    endloop
  endfacet
  facet normal 0 0 1
    outer loop
      vertex 14.6722 3.11868 12
      vertex 14.6722 -3.11868 12
      vertex 15 0 12
    endloop
  endfacet
  facet normal 0 0 1
    outer loop
      vertex 13.7032 6.10105 12
      vertex 14.6722 -3.11868 12
      vertex 14.6722 3.11868 12
    endloop
  endfacet
  facet normal 0 0 1
    outer loop
      vertex 13.7032 6.10105 12
      vertex 13.7032 -6.10105 12
      vertex 14.6722 -3.11868 12
    endloop
  endfacet
  facet normal 0 0 1
    outer loop
      vertex 12.1353 8.81678 12
      vertex 13.7032 -6.10105 12
      vertex 13.7032 6.10105 12
    endloop
  endfacet
  facet normal 0 0 1
    outer loop
      vertex 12.1353 8.81678 12
      vertex 12.1353 -8.81678 12
      vertex 13.7032 -6.10105 12
    endloop
  endfacet
  facet normal 0 0 1
    outer loop
      vertex 10.037 11.1472 12
      vertex 12.1353 -8.81678 12
      vertex 12.1353 8.81678 12
    endloop
  endfacet
  facet normal 0 0 1
    outer loop
      vertex 10.037 11.1472 12
      vertex 10.037 -11.1472 12
      vertex 12.1353 -8.81678 12
    endloop
  endfacet
  facet normal 0 0 1
    outer loop
      vertex 7.5 12.9904 12
      vertex 10.037 -11.1472 12
      vertex 10.037 11.1472 12
    endloop
  endfacet
  facet normal 0 0 1
    outer loop
      vertex 7.5 12.9904 12
      vertex 7.5 -12.9904 12
      vertex 10.037 -11.1472 12
    endloop
  endfacet
  facet normal 0 0 1
    outer loop
      vertex 4.63525 14.2658 12
      vertex 7.5 -12.9904 12
      vertex 7.5 12.9904 12
    endloop
  endfacet
  facet normal 0 0 1
    outer loop
      vertex 4.63525 14.2658 12
      vertex 4.63525 -14.2658 12
      vertex 7.5 -12.9904 12
    endloop
  endfacet
  facet normal 0 0 1
    outer loop
      vertex 1.56793 14.9178 12
      vertex 4.63525 -14.2658 12
      vertex 4.63525 14.2658 12
    endloop
  endfacet
  facet normal 0 0 1
    outer loop
      vertex 1.56793 14.9178 12
      vertex 1.56793 -14.9178 12
      vertex 4.63525 -14.2658 12
    endloop
  endfacet
  facet normal -0 0 1
    outer loop
      vertex -1.56793 14.9178 12
      vertex 1.56793 -14.9178 12
      vertex 1.56793 14.9178 12
    endloop
  endfacet
  facet normal 0 0 1
    outer loop
      vertex -1.56793 14.9178 12
      vertex -1.56793 -14.9178 12
      vertex 1.56793 -14.9178 12
    endloop
  endfacet
  facet normal -0 0 1
    outer loop
      vertex -4.63525 14.2658 12
      vertex -1.56793 -14.9178 12
      vertex -1.56793 14.9178 12
    endloop
  endfacet
  facet normal 0 0 1
    outer loop
      vertex -4.63525 14.2658 12
      vertex -4.63525 -14.2658 12
      vertex -1.56793 -14.9178 12
    endloop
  endfacet
  facet normal -0 0 1
    outer loop
      vertex -7.5 12.9904 12
      vertex -4.63525 -14.2658 12
      vertex -4.63525 14.2658 12
    endloop
  endfacet
  facet normal 0 0 1
    outer loop
      vertex -7.5 12.9904 12
      vertex -7.5 -12.9904 12
      vertex -4.63525 -14.2658 12
    endloop
  endfacet
  facet normal -0 0 1
    outer loop
      vertex -10.037 11.1472 12
      vertex -7.5 -12.9904 12
      vertex -7.5 12.9904 12
    endloop
  endfacet
  facet normal 0 0 1
    outer loop
      vertex -10.037 11.1472 12
      vertex -10.037 -11.1472 12
      vertex -7.5 -12.9904 12
    endloop
  endfacet
  facet normal -0 0 1
    outer loop
      vertex -12.1353 8.81678 12
      vertex -10.037 -11.1472 12
      vertex -10.037 11.1472 12
    endloop
  endfacet
  facet normal 0 0 1
    outer loop
      vertex -12.1353 8.81678 12
      vertex -12.1353 -8.81678 12
      vertex -10.037 -11.1472 12
    endloop
  endfacet
  facet normal -0 0 1
    outer loop
      vertex -13.7032 6.10105 12
      vertex -12.1353 -8.81678 12
      vertex -12.1353 8.81678 12
    endloop
  endfacet
  facet normal 0 0 1
    outer loop
      vertex -13.7032 6.10105 12
      vertex -13.7032 -6.10105 12
      vertex -12.1353 -8.81678 12
    endloop
  endfacet
  facet normal -0 0 1
    outer loop
      vertex -14.6722 3.11868 12
      vertex -13.7032 -6.10105 12
      vertex -13.7032 6.10105 12
    endloop
  endfacet
  facet normal 0 0 1
    outer loop
      vertex -14.6722 3.11868 12
      vertex -14.6722 -3.11868 12
      vertex -13.7032 -6.10105 12
    endloop
  endfacet
  facet normal 0 -0 1
    outer loop
      vertex -14.6722 -3.11868 12
      vertex -14.6722 3.11868 12
      vertex -15 0 12
    endloop
  endfacet
  facet normal -0.553761 -0.0582007 -0.830639
    outer loop
      vertex -14.6722 -3.11868 12
      vertex -6 0 6
      vertex -5.86889 -1.24747 6
    endloop
  endfacet
  facet normal -0.55376 -0.0582049 -0.83064
    outer loop
      vertex -6 0 6
      vertex -14.6722 -3.11868 12
      vertex -15 0 12
    endloop
  endfacet
endsolid OpenSCAD_Model
